<?xml version="1.0" standalone="no"?>
<!DOCTYPE svg PUBLIC "-//W3C//DTD SVG 20010904//EN"
 "http://www.w3.org/TR/2001/REC-SVG-20010904/DTD/svg10.dtd">
<svg version="1.0" xmlns="http://www.w3.org/2000/svg"
 width="438.000000pt" height="438.000000pt" viewBox="0 0 438.000000 438.000000"
 preserveAspectRatio="xMidYMid meet">
<metadata>
Created by potrace 1.14, written by Peter Selinger 2001-2017
</metadata>
<g transform="translate(0.000000,438.000000) scale(0.100000,-0.100000)"
fill="#000000" stroke="none">
<path d="M2084 3859 c7 -32 -13 -40 -88 -33 -52 4 -70 -1 -60 -18 4 -6 9 -5
15 3 11 18 23 4 15 -17 -5 -12 -12 -14 -29 -9 -30 10 -101 13 -107 4 -5 -7
-43 -1 -130 21 -88 22 -170 -6 -212 -74 -31 -49 -45 -120 -28 -141 18 -21 3
-52 -28 -58 -15 -3 -43 -16 -62 -29 -20 -14 -42 -23 -50 -20 -12 3 -13 2 -1
-6 7 -5 11 -15 7 -20 -8 -14 3 -62 15 -62 5 0 9 9 9 20 0 24 15 27 24 4 9 -23
-1 -34 -32 -34 -20 0 -23 -3 -13 -9 11 -7 10 -11 -7 -22 -16 -10 -19 -20 -15
-41 5 -23 2 -28 -23 -34 -42 -10 -112 -61 -128 -93 -8 -15 -18 -52 -21 -82
-10 -89 -26 -193 -32 -209 -3 -8 -6 -26 -8 -40 -4 -38 -43 -110 -61 -110 -8 0
-12 -5 -9 -10 3 -6 -10 -29 -29 -53 -46 -56 -76 -123 -75 -167 1 -32 2 -30 9
12 10 59 19 75 31 57 9 -14 10 -12 14 27 6 55 83 129 115 109 14 -9 3 -25 -13
-19 -7 2 -21 -2 -32 -10 -19 -15 -18 -15 18 -16 35 0 37 -2 37 -32 0 -29 -1
-30 -17 -16 -35 29 -47 29 -16 0 27 -26 30 -32 17 -43 -8 -6 -14 -19 -14 -29
0 -20 23 -43 33 -33 4 3 7 -5 7 -18 0 -19 -2 -21 -10 -9 -7 10 -8 -1 -3 -34 3
-27 14 -57 25 -68 23 -23 23 -45 -1 -57 -10 -6 -20 -9 -22 -7 -11 9 -79 14
-79 5 0 -5 12 -9 26 -9 46 0 64 -17 65 -63 1 -23 3 -35 6 -25 6 22 26 28 60
18 l28 -8 -27 -1 c-30 -1 -39 -25 -13 -35 8 -3 14 0 12 6 -1 7 8 13 20 14 12
1 22 -2 21 -5 0 -3 0 -15 1 -26 1 -17 3 -18 11 -5 8 13 10 12 10 -2 0 -11 -8
-18 -19 -18 -15 0 -19 -5 -15 -24 3 -20 -2 -26 -36 -40 -42 -17 -118 -12 -86
6 9 5 16 16 16 23 0 17 -65 21 -75 5 -4 -6 -11 -8 -16 -5 -5 4 -9 3 -9 -2 0
-16 16 -30 40 -38 33 -10 51 -25 44 -36 -3 -5 1 -9 9 -9 8 0 17 -7 21 -15 4
-10 -1 -15 -15 -15 -11 0 -17 -4 -14 -10 3 -5 -1 -10 -9 -10 -9 0 -16 -6 -16
-14 0 -8 -12 -19 -27 -25 -30 -12 -32 -12 45 6 14 3 30 -1 41 -11 10 -9 21
-13 26 -9 4 5 5 2 1 -5 -4 -7 -2 -19 4 -27 7 -8 8 -20 4 -27 -5 -7 -9 -20 -9
-28 0 -8 -6 -14 -13 -12 -22 4 5 -36 29 -43 17 -6 19 -9 8 -17 -10 -7 -6 -8
14 -4 15 4 27 2 27 -4 0 -5 -10 -10 -22 -10 -19 0 -20 -2 -8 -10 27 -18 78
-12 94 11 11 17 20 20 45 14 17 -4 31 -11 31 -16 0 -5 7 -9 17 -9 13 0 12 3
-5 19 -12 10 -22 21 -22 24 0 7 40 16 41 9 8 -38 4 -53 -17 -67 -20 -13 -29
-13 -47 -4 -22 12 -22 12 -3 -9 18 -21 18 -22 -8 -31 -14 -6 -26 -13 -26 -15
0 -6 30 4 45 14 20 14 65 21 65 10 0 -6 -5 -8 -12 -4 -7 5 -9 2 -5 -9 3 -9 1
-18 -6 -20 -9 -3 -7 -14 5 -41 10 -20 18 -47 18 -61 0 -13 7 -31 15 -39 12
-12 13 -20 5 -35 -5 -11 -10 -30 -10 -43 0 -13 -5 -29 -11 -35 -17 -17 -1 -35
23 -27 19 6 20 3 14 -26 -6 -32 -6 -32 17 -17 12 8 21 20 19 26 -1 6 6 11 17
11 18 0 49 28 43 39 -2 3 5 8 15 12 20 7 48 -21 31 -32 -18 -11 -21 -83 -4
-123 9 -22 19 -37 22 -33 3 3 1 14 -5 25 -14 27 -14 99 0 107 10 7 8 34 -8
120 l-5 30 26 -35 c15 -19 29 -45 32 -57 3 -12 13 -25 23 -28 9 -2 22 -19 30
-36 7 -17 21 -33 30 -37 21 -8 31 -22 31 -49 0 -17 6 -23 23 -23 22 -1 22 -1
2 -17 -16 -12 -16 -14 -3 -10 20 7 30 -5 22 -26 -9 -25 -33 -28 -51 -7 -13 14
-20 17 -30 8 -9 -7 -13 -7 -13 1 0 7 -5 9 -10 6 -8 -5 -7 -11 1 -21 6 -8 9
-17 5 -21 -13 -13 91 -43 174 -50 70 -5 80 -8 57 -16 -33 -11 -38 -47 -7 -47
33 0 23 -17 -15 -24 -43 -8 -53 -23 -23 -35 13 -5 30 -16 36 -24 11 -13 10
-17 -4 -25 -9 -5 -25 -7 -34 -5 -20 5 -32 -8 -22 -23 4 -5 20 -15 35 -22 17
-7 25 -17 21 -24 -5 -8 -2 -9 9 -5 9 3 19 2 22 -3 6 -9 -2 -12 -22 -9 -3 0
-11 -7 -16 -16 -6 -12 -5 -20 4 -26 11 -6 10 -9 -4 -14 -17 -7 -19 -47 -4 -72
8 -13 -25 -23 -44 -13 -11 7 -14 -3 -14 -49 0 -47 3 -57 18 -58 9 -1 17 2 17
7 0 5 10 18 22 30 12 11 23 29 25 41 2 11 10 34 19 50 8 17 13 37 10 45 -5 14
29 83 49 96 5 4 21 8 35 8 28 1 84 45 75 60 -3 6 -15 5 -30 -2 -28 -13 -40 -6
-31 17 5 13 35 31 59 34 4 0 18 11 31 23 18 17 23 30 19 50 -4 23 -8 25 -34
18 -24 -7 -29 -6 -29 9 0 19 48 38 160 61 81 17 203 56 279 89 36 16 81 32 98
36 29 6 32 4 27 -12 -3 -10 7 -3 22 16 16 19 29 41 30 49 3 16 20 37 32 38 22
2 73 42 78 62 4 12 10 22 15 22 15 0 40 73 34 100 l-5 25 19 -23 c11 -12 21
-28 24 -35 5 -16 37 9 37 29 0 8 5 14 10 14 6 0 10 -4 10 -9 0 -5 11 -12 25
-15 14 -4 25 -11 25 -17 0 -11 25 -39 35 -39 3 0 3 10 -1 23 -4 12 -7 28 -7
35 0 6 -12 12 -26 13 l-26 1 28 11 c51 20 77 101 52 161 -7 16 -5 18 8 13 9
-3 17 -2 17 3 0 6 -7 10 -15 10 -8 0 -15 8 -15 18 1 14 5 12 25 -10 13 -16 29
-28 35 -28 6 0 0 12 -14 27 -22 23 -23 28 -11 47 12 18 13 41 6 86 -1 3 -6 -2
-11 -10 -6 -9 -10 -10 -10 -3 0 15 30 32 46 26 6 -2 23 3 39 11 l29 15 -28 11
c-15 5 -31 10 -36 10 -4 0 -11 7 -14 16 -3 9 -11 12 -18 8 -10 -6 -11 -4 0 7
14 15 16 33 3 25 -13 -8 -27 15 -29 48 -2 21 2 27 13 22 8 -3 15 -1 15 4 0 6
-5 10 -11 10 -5 0 -7 5 -4 10 4 6 12 4 21 -5 14 -13 14 -18 0 -47 -20 -39 -20
-37 4 -31 11 3 20 14 20 24 0 27 21 32 55 15 16 -8 32 -13 37 -10 5 3 14 1 21
-4 7 -5 32 -12 57 -16 37 -6 42 -5 30 6 -8 7 -21 20 -28 28 -12 13 -12 13 -7
-2 4 -10 4 -18 1 -18 -14 0 -105 50 -112 61 -4 6 -3 10 2 7 89 -43 129 -49 47
-6 -47 24 -48 25 -69 103 -11 43 -26 81 -34 83 -27 9 -60 55 -60 84 0 17 10
40 25 56 14 15 28 42 31 60 5 27 9 30 21 20 8 -6 12 -19 10 -29 -3 -12 0 -15
14 -12 21 6 26 23 7 23 -9 0 -8 4 2 11 13 9 13 10 -1 6 -10 -3 -20 3 -27 16
-13 29 -31 94 -36 133 l-4 31 30 -14 c44 -23 108 -29 119 -12 7 12 9 12 9 -1
0 -13 1 -13 10 0 5 8 9 29 9 45 0 23 -2 26 -8 12 -6 -15 -9 -12 -21 17 -7 19
-17 33 -21 30 -4 -2 -13 6 -20 18 -7 13 -25 39 -41 58 -16 19 -28 47 -28 62 0
16 -4 28 -10 28 -5 0 -10 5 -10 11 0 5 4 8 9 5 16 -10 18 18 4 52 -7 18 -11
37 -8 42 7 12 -25 61 -35 55 -14 -9 -60 14 -60 29 0 8 -6 17 -12 20 -10 5 -10
7 0 12 9 4 5 12 -13 26 -14 11 -24 23 -21 26 4 3 -2 14 -11 25 -17 20 -17 20
2 13 11 -5 43 -16 72 -26 99 -35 117 -55 138 -153 11 -50 14 -55 14 -27 1 75
-43 153 -96 171 -22 7 -31 14 -23 19 8 5 7 9 -5 13 -11 5 -14 3 -9 -5 5 -8 2
-9 -12 -4 -10 5 -27 11 -36 13 -10 3 -18 9 -18 14 0 5 -4 8 -9 6 -17 -4 -65
34 -88 70 -13 19 -24 52 -26 75 -3 35 -10 46 -58 85 -30 24 -70 59 -90 76 -21
18 -61 44 -90 58 -103 51 -164 78 -194 85 -16 4 -36 12 -44 18 -12 9 -13 8 -6
-3 6 -11 4 -13 -11 -8 -76 24 -94 34 -94 48 0 8 -7 24 -15 35 -14 18 -15 17
-5 -8 6 -18 6 -29 0 -33 -6 -4 -10 0 -10 7 0 8 -7 23 -16 34 -14 17 -15 18
-10 1 9 -27 -3 -41 -20 -26 -11 9 -18 9 -25 2 -8 -8 -17 -5 -30 8 -10 10 -26
19 -34 19 -8 0 -15 5 -15 11 0 5 -4 8 -9 4 -6 -3 -15 3 -21 12 -10 15 -10 14
-6 -8z m-391 -73 c26 -8 44 -10 41 -5 -9 15 13 10 26 -6 10 -12 9 -15 -5 -15
-15 0 -16 -2 -4 -17 13 -17 13 -17 -7 0 -25 21 -44 22 -44 2 0 -8 -7 -15 -15
-15 -8 0 -15 -3 -15 -8 0 -4 -10 -13 -22 -21 -21 -13 -22 -13 -9 2 7 10 10 17
6 17 -4 0 -2 7 5 15 10 12 10 15 -3 15 -8 0 -18 6 -20 13 -4 8 -8 9 -14 1 -4
-6 -15 -14 -23 -17 -11 -4 -9 -7 8 -13 18 -5 20 -9 10 -15 -20 -13 -40 -11
-33 4 4 6 1 5 -7 -4 -7 -9 -25 -19 -40 -22 -22 -6 -28 -15 -33 -45 -10 -59
-16 -62 -10 -4 5 64 34 114 78 136 40 19 71 20 130 2z m-93 -115 c0 -5 -13
-14 -29 -19 -25 -9 -29 -8 -24 4 3 7 9 12 13 9 5 -3 11 -1 15 5 8 12 25 13 25
1z m1081 -68 c13 -16 12 -17 -3 -4 -17 13 -22 21 -14 21 2 0 10 -8 17 -17z
m-486 -98 c28 -4 55 -11 60 -15 6 -5 36 -11 68 -15 31 -4 57 -12 57 -17 0 -6
7 -8 15 -4 8 3 15 2 15 -2 0 -4 14 -9 31 -10 33 -3 109 -38 121 -56 4 -6 8 -7
8 -2 0 5 7 2 16 -5 24 -19 59 -99 62 -139 1 -19 11 -53 22 -74 10 -22 17 -43
14 -48 -3 -4 -1 -8 5 -8 5 0 12 -13 16 -28 3 -15 15 -43 27 -62 48 -78 86
-171 112 -275 38 -155 35 -319 -11 -485 -4 -13 -5 -13 -13 0 -6 9 -10 10 -10
3 0 -6 -5 -24 -12 -40 -6 -15 -10 -36 -9 -45 1 -10 -3 -18 -8 -18 -6 0 -11
-18 -11 -39 0 -22 -4 -43 -10 -46 -5 -3 -10 1 -10 11 0 12 -3 14 -12 6 -13
-10 -59 -9 -77 3 -6 3 -11 12 -11 19 0 8 -11 21 -25 30 -27 18 -50 21 -40 7 3
-6 -3 -14 -12 -20 -10 -6 -12 -11 -5 -11 32 0 -7 -60 -40 -60 -10 0 -18 -7
-18 -15 0 -14 -6 -17 -27 -14 -4 0 -11 -9 -15 -21 l-8 -22 -20 25 c-24 30 -26
49 -5 41 24 -9 19 102 -6 141 -10 17 -23 40 -29 53 -5 12 -14 22 -20 22 -5 0
-10 20 -10 44 0 33 -7 52 -25 74 -14 17 -25 37 -25 45 0 22 -111 117 -138 117
-16 0 -21 4 -16 13 4 6 4 9 -1 5 -4 -4 -14 -3 -22 3 -10 9 -13 8 -13 -5 0 -10
4 -15 9 -12 5 3 11 -1 15 -9 3 -8 11 -15 18 -15 26 0 68 -60 68 -96 0 -39 -12
-43 -42 -14 -11 10 -34 22 -49 25 -16 4 -27 10 -24 15 10 16 -27 19 -57 4 -17
-9 -39 -14 -49 -11 -11 3 -17 1 -13 -4 3 -5 0 -9 -5 -9 -6 0 -11 4 -11 9 0 8
-27 7 -59 -2 -3 0 -16 4 -29 11 -28 16 -51 9 -87 -24 -31 -28 -37 -26 -37 11
0 16 12 40 33 61 25 25 28 33 14 28 -40 -15 -135 -110 -157 -157 -10 -21 -21
-37 -26 -37 -4 0 -16 -18 -26 -40 -10 -22 -22 -38 -27 -35 -5 4 -9 -3 -9 -14
0 -12 -7 -21 -15 -21 -16 0 -20 -16 -6 -24 4 -3 6 -17 4 -31 -3 -13 -9 -23
-13 -20 -4 3 1 -12 11 -32 11 -21 19 -48 19 -60 0 -13 5 -23 10 -23 12 0 13
-77 1 -84 -5 -3 -7 -15 -4 -26 4 -16 -1 -23 -26 -33 -17 -6 -31 -15 -31 -19 0
-4 7 -4 17 -1 11 4 14 3 9 -5 -4 -7 -13 -12 -21 -12 -8 0 -12 -9 -11 -25 3
-19 0 -23 -13 -16 -9 5 -21 6 -28 4 -7 -2 -18 5 -25 16 -7 12 -21 21 -30 21
-10 0 -18 7 -18 15 0 8 -4 15 -10 15 -5 0 -10 10 -10 23 -1 19 -2 19 -15 -8
-7 -17 -14 -23 -15 -15 -1 8 -3 20 -5 25 -1 6 -3 16 -3 23 -1 7 -6 11 -11 8
-11 -7 -27 56 -42 172 -20 152 2 573 30 592 5 3 22 28 39 55 22 37 31 67 36
115 l5 65 -19 -55 -19 -55 0 43 c-1 23 3 50 8 60 22 40 41 86 41 99 0 7 5 12
12 11 12 -3 15 5 43 140 30 147 146 255 285 267 75 6 181 35 173 48 -4 6 4 8
20 5 14 -3 32 -1 39 3 14 9 122 6 203 -6z m-825 -40 c-35 -36 -45 -39 -34 -11
5 14 47 44 63 46 3 0 -10 -16 -29 -35z m70 31 c0 -3 -4 -8 -10 -11 -5 -3 -10
-1 -10 4 0 6 5 11 10 11 6 0 10 -2 10 -4z m1400 -27 c0 -5 -4 -9 -8 -9 -5 0
-9 7 -9 15 0 8 4 12 9 9 4 -3 8 -9 8 -15z m17 -21 c-3 -8 -6 -5 -6 6 -1 11 2
17 5 13 3 -3 4 -12 1 -19z m-1512 -108 c3 -5 2 -10 -4 -10 -5 0 -13 5 -16 10
-3 6 -2 10 4 10 5 0 13 -4 16 -10z m-51 -148 c-1 -37 -6 -80 -12 -97 -6 -16
-16 -51 -23 -76 -9 -38 -18 -50 -50 -68 -22 -13 -37 -26 -34 -31 3 -5 -6 -17
-20 -28 -14 -11 -25 -25 -25 -30 0 -6 -4 -13 -9 -16 -18 -12 2 39 23 57 18 17
19 18 2 13 -16 -5 -18 -2 -13 21 3 16 11 73 17 128 6 55 17 111 23 125 11 22
85 68 112 70 6 0 10 -28 9 -68z m1686 8 c6 -11 8 -20 6 -20 -3 0 -10 9 -16 20
-6 11 -8 20 -6 20 3 0 10 -9 16 -20z m104 -95 c11 -8 16 -15 11 -15 -5 0 1
-10 12 -22 22 -25 41 -80 20 -59 -6 6 -15 11 -21 11 -6 0 -5 -5 2 -12 7 -7 12
-22 12 -35 0 -13 5 -23 12 -23 6 0 8 -3 4 -7 -12 -12 -60 49 -78 99 -19 54
-12 63 14 18 9 -17 22 -30 28 -30 15 0 12 17 -4 23 -16 6 -51 67 -39 67 5 0
17 -7 27 -15z m57 -226 c69 -79 93 -115 80 -124 -6 -3 -19 -1 -28 4 -10 6 -14
11 -8 11 5 0 -1 7 -13 16 -16 11 -21 22 -17 37 2 12 2 16 -1 9 -7 -16 -83 66
-84 91 0 29 14 20 71 -44z m-1916 -21 c-8 -20 -20 -40 -26 -43 -6 -4 -1 11 10
34 12 22 22 48 22 58 1 14 2 15 6 3 2 -9 -3 -32 -12 -52z m-39 -27 c-14 -28
-26 -56 -26 -63 0 -7 -9 -24 -20 -38 l-20 -25 10 28 c5 15 9 31 8 35 -6 21 58
129 70 118 2 -2 -8 -27 -22 -55z m1928 13 c20 -26 34 -50 31 -54 -3 -4 2 -10
10 -14 8 -3 12 -12 9 -21 -4 -11 1 -15 17 -16 18 -1 20 -2 6 -6 -29 -7 -106
75 -114 120 -3 20 -3 37 0 37 3 0 22 -21 41 -46z m-2008 -90 c-3 -8 -15 -14
-27 -14 -23 0 -23 0 6 47 l20 33 3 -26 c2 -14 1 -32 -2 -40z m108 12 c-27 -42
-37 -29 -12 15 14 26 24 36 26 26 2 -9 -4 -27 -14 -41z m-83 -117 c-5 -13 -10
-19 -10 -12 -1 15 10 45 15 40 3 -2 0 -15 -5 -28z m62 -14 c-3 -9 -8 -14 -10
-11 -3 3 -2 9 2 15 9 16 15 13 8 -4z m-43 -130 c0 -14 -2 -25 -4 -25 -2 0 -6
11 -8 25 -3 14 -1 25 3 25 5 0 9 -11 9 -25z m-33 -57 c-3 -8 -6 -5 -6 6 -1 11
2 17 5 13 3 -3 4 -12 1 -19z m1872 -90 c-12 -168 -45 -288 -79 -288 -26 0 -12
97 20 142 21 28 24 87 5 100 -7 5 -6 8 1 8 9 0 14 31 17 101 1 9 7 15 13 12 7
-2 15 0 19 6 3 6 7 11 8 11 1 0 -1 -42 -4 -92z m-1840 49 c0 -21 -1 -21 -9 -2
-12 28 -12 37 0 30 6 -3 10 -16 9 -28z m661 -58 c0 -4 -9 -13 -19 -19 -21 -11
-51 -4 -51 12 0 6 8 4 17 -3 14 -12 15 -12 9 0 -5 8 -3 16 4 21 15 9 40 2 40
-11z m-551 -144 c0 -5 -4 -3 -9 5 -5 8 -9 22 -9 30 0 16 17 -16 18 -35z m1571
31 c0 -3 -4 -8 -10 -11 -5 -3 -10 -1 -10 4 0 6 5 11 10 11 6 0 10 -2 10 -4z
m-860 -66 c13 -7 21 -7 25 0 11 18 74 12 87 -10 9 -13 19 -18 34 -14 16 4 24
0 29 -15 7 -24 -2 -44 -16 -35 -5 3 -66 7 -135 9 -128 3 -151 9 -134 35 8 13
10 12 10 -2 0 -10 5 -18 10 -18 6 0 10 8 10 18 0 37 40 53 80 32z m1157 -22
c-3 -7 -5 -2 -5 12 0 14 2 19 5 13 2 -7 2 -19 0 -25z m-501 -22 c22 -17 11
-35 -13 -20 -19 12 -29 34 -16 34 5 0 18 -6 29 -14z m560 -23 c-8 -9 -46 18
-40 28 4 6 13 4 25 -7 11 -9 17 -19 15 -21z m-1321 -35 c22 -6 67 -12 100 -13
76 -3 125 -14 125 -27 0 -7 -16 -8 -47 -3 -27 4 -52 7 -58 6 -5 0 -41 -1 -78
-3 -50 -1 -66 -5 -63 -14 3 -7 -3 -13 -12 -12 -24 0 -110 -20 -90 -21 11 -1
15 -7 10 -23 -3 -13 -1 -19 5 -15 6 4 13 -1 15 -11 4 -12 -1 -18 -13 -19 -10
-1 -19 4 -21 12 -2 8 -10 4 -22 -13 -17 -22 -17 -25 -3 -19 12 5 17 1 17 -13
0 -21 33 -34 82 -33 24 0 26 -2 17 -19 -5 -10 -14 -16 -19 -13 -6 4 -7 -6 -4
-23 4 -19 1 -32 -7 -37 -8 -6 -10 -4 -3 6 4 8 -7 1 -25 -14 -22 -18 -37 -25
-44 -18 -5 5 -15 7 -22 5 -17 -7 -45 34 -38 54 5 11 2 14 -10 9 -11 -4 -17 -1
-17 9 0 9 -5 12 -12 8 -9 -5 -8 -2 1 9 15 19 16 19 -19 34 l-25 12 26 0 c27 1
75 30 50 31 -11 0 -10 4 4 14 13 10 18 26 18 61 l0 47 19 -23 19 -24 -6 23
c-8 29 10 52 42 52 13 0 26 6 29 13 6 17 27 18 79 5z m765 -19 c0 -5 -4 -9
-10 -9 -5 0 -10 7 -10 16 0 8 5 12 10 9 6 -3 10 -10 10 -16z m65 11 c10 16 35
12 35 -6 0 -8 5 -12 10 -9 6 3 10 -2 10 -12 0 -15 2 -16 10 -3 7 11 9 7 7 -17
-2 -33 -21 -51 -33 -32 -10 17 -33 -10 -40 -50 -4 -20 -9 -29 -12 -21 -8 23
-49 70 -56 63 -15 -16 -4 33 15 64 16 26 24 31 34 23 9 -8 15 -8 20 0z m-125
-10 c0 -5 -4 -10 -10 -10 -5 0 -10 5 -10 10 0 6 5 10 10 10 6 0 10 -4 10 -10z
m567 -86 c-3 -3 -12 -4 -19 -1 -8 3 -5 6 6 6 11 1 17 -2 13 -5z m-496 -61 c-8
-15 -10 -11 -9 15 1 26 3 30 10 18 5 -10 5 -23 -1 -33z m-27 22 c-4 -8 -11
-15 -16 -15 -6 0 -5 6 2 15 7 8 14 15 16 15 2 0 1 -7 -2 -15z m-1419 -43 c-3
-3 -11 0 -18 7 -9 10 -8 11 6 5 10 -3 15 -9 12 -12z m92 -18 c-3 -3 -12 -4
-19 -1 -8 3 -5 6 6 6 11 1 17 -2 13 -5z m-102 -28 c15 6 29 -12 16 -20 -14 -9
-39 3 -46 22 -5 13 -3 14 6 5 6 -6 17 -9 24 -7z m122 -2 c-3 -3 -12 -4 -19 -1
-8 3 -5 6 6 6 11 1 17 -2 13 -5z m888 -14 c-8 -12 1 -13 23 -1 12 6 26 4 42
-6 14 -8 18 -12 9 -9 -13 3 -16 0 -11 -17 2 -12 8 -27 13 -32 5 -7 -1 -11 -17
-13 -15 -1 -24 3 -24 13 0 7 -4 16 -9 19 -5 4 -7 -4 -3 -16 5 -21 2 -20 -28 9
-18 18 -37 30 -43 26 -5 -3 -8 0 -5 8 2 7 15 16 29 20 13 4 25 7 27 8 2 1 0
-3 -3 -9z m601 -317 c-11 -13 -26 -23 -33 -23 -8 0 -12 -4 -9 -9 3 -5 0 -11
-8 -14 -9 -4 -13 2 -13 18 0 16 4 22 13 18 8 -3 14 -1 14 5 0 5 3 25 7 43 6
31 5 33 -10 20 -20 -16 -47 -8 -47 14 0 9 4 14 9 10 9 -5 21 21 27 60 7 49 35
147 46 165 11 17 14 -3 19 -132 5 -142 4 -153 -15 -175z m-1336 297 c0 -11 -4
-20 -10 -20 -5 0 -10 9 -10 20 0 11 5 20 10 20 6 0 10 -9 10 -20z m1446 -25
c-11 -8 -25 -15 -30 -14 -6 0 -5 3 2 6 6 2 10 9 6 14 -3 5 5 9 18 9 22 -1 22
-1 4 -15z m-1501 -25 c-3 -5 -14 -10 -23 -10 -15 0 -15 2 -2 10 20 13 33 13
25 0z m1515 -20 c0 -5 -5 -10 -11 -10 -5 0 -7 5 -4 10 3 6 8 10 11 10 2 0 4
-4 4 -10z m-1490 -51 c0 -14 -17 -10 -23 5 -4 10 -1 13 9 9 7 -3 14 -9 14 -14z
m2 -39 c21 0 21 0 2 -15 -27 -20 -31 -19 -49 15 -21 40 -19 48 5 22 12 -12 30
-22 42 -22z m14 -138 c-17 -16 -18 -16 -5 5 7 12 15 20 18 17 3 -2 -3 -12 -13
-22z m122 -20 c2 -7 -8 -12 -25 -12 -17 0 -30 5 -30 13 0 16 49 15 55 -1z
m478 -364 c-19 -11 -81 -20 -72 -10 11 11 70 29 80 24 5 -3 1 -9 -8 -14z"/>
<path d="M2165 3470 c3 -5 8 -10 11 -10 2 0 4 5 4 10 0 6 -5 10 -11 10 -5 0
-7 -4 -4 -10z"/>
<path d="M1760 3018 c0 -14 -6 -16 -30 -11 -29 5 -44 1 -147 -43 -17 -8 -38
-14 -47 -14 -19 0 -106 -81 -106 -99 0 -7 5 -9 10 -6 6 3 10 0 10 -8 0 -20 37
-11 72 19 23 19 36 22 75 18 46 -5 93 -26 93 -42 0 -4 -31 -16 -69 -25 -39
-10 -71 -23 -73 -28 -2 -5 -12 -11 -23 -13 -44 -9 -75 -26 -77 -43 -7 -85 -1
-91 62 -60 32 16 44 19 47 10 3 -7 10 -13 18 -13 7 0 18 -7 25 -15 11 -13 8
-15 -18 -15 -57 0 -65 -9 -30 -38 29 -24 39 -27 109 -26 43 0 84 5 91 11 14
11 85 28 106 24 7 -1 15 5 18 13 3 9 10 13 15 10 5 -3 9 1 9 8 0 7 11 30 25
50 14 20 25 43 25 51 0 8 7 20 15 27 8 7 15 20 15 30 0 26 50 37 67 14 7 -9
10 -21 7 -25 -3 -5 -1 -9 4 -9 6 0 15 -12 21 -27 6 -16 20 -41 31 -58 11 -16
23 -36 26 -42 3 -7 12 -13 20 -13 8 0 14 -4 14 -9 0 -5 17 -12 38 -16 20 -4
43 -11 50 -17 6 -6 12 -8 12 -4 0 4 13 0 30 -9 32 -17 145 -21 182 -6 39 16
63 24 70 25 4 1 13 7 20 14 6 6 17 12 23 12 24 0 62 25 73 49 15 32 15 44 0
35 -7 -5 -8 -3 -3 6 4 7 2 15 -4 19 -6 4 -13 21 -14 38 -1 17 -4 31 -7 31 -3
0 -12 0 -20 1 -13 1 -13 3 0 10 8 6 19 7 25 4 5 -4 7 -3 3 2 -4 4 -3 14 2 20
17 21 -9 62 -66 105 -30 22 -64 44 -76 49 -51 19 -305 33 -315 18 -3 -5 -9 -3
-14 4 -6 11 -9 10 -15 -4 -3 -9 -12 -17 -20 -17 -8 0 -14 -7 -14 -15 0 -7 -6
-18 -14 -22 -21 -13 -41 -56 -27 -61 14 -5 15 -32 0 -32 -5 0 -7 5 -4 10 3 6
1 10 -4 10 -6 0 -11 -6 -11 -13 0 -19 -37 -40 -44 -24 -3 9 -7 9 -14 -2 -8
-11 -10 -11 -14 0 -4 12 -8 12 -20 1 -12 -9 -18 -10 -23 -2 -4 6 -5 14 -2 17
3 3 1 16 -4 30 -7 18 -6 30 3 41 10 12 10 14 1 8 -9 -5 -13 0 -13 14 0 16 -5
20 -15 16 -8 -3 -15 -2 -15 3 0 14 -82 49 -110 47 -14 -1 -28 3 -32 9 -5 6 -8
3 -8 -7z m776 -155 c-10 -10 27 -32 54 -33 22 -1 23 -2 7 -11 -17 -10 -17 -12
-2 -23 14 -10 11 -12 -19 -14 -20 -2 -36 2 -36 8 0 5 -11 10 -25 10 -14 0 -28
6 -31 14 -3 8 -12 12 -20 9 -21 -8 -84 6 -84 19 0 5 6 8 13 5 7 -3 21 1 31 8
17 13 124 20 112 8z m-896 -78 c0 -2 -18 -13 -40 -24 -22 -11 -37 -15 -34 -10
3 5 20 16 37 23 40 18 37 17 37 11z m0 -73 c0 -10 5 -23 12 -30 9 -9 7 -12 -9
-12 -50 0 -71 29 -35 49 25 15 32 13 32 -7z m152 -24 c-9 -9 -12 -7 -12 12 0
19 3 21 12 12 9 -9 9 -15 0 -24z m508 13 c14 -27 14 -28 -19 -23 -22 3 -28 8
-24 23 7 25 29 24 43 0z m158 2 c-2 -9 -11 -17 -20 -19 -21 -3 -23 7 -6 24 17
17 30 15 26 -5z m119 -49 c2 -6 -14 -11 -37 -12 -22 -2 -40 2 -40 7 0 20 70
25 77 5z"/>
<path d="M2014 2922 c-15 -9 -26 -59 -16 -66 10 -6 56 53 48 61 -3 4 -6 0 -7
-8 0 -10 -3 -9 -7 3 -4 10 -12 14 -18 10z"/>
<path d="M2524 2129 c-3 -6 -1 -16 5 -22 8 -8 11 -5 11 11 0 24 -5 28 -16 11z"/>
<path d="M1477 2046 c-4 -9 -3 -16 2 -16 5 0 9 -11 9 -24 0 -17 -5 -23 -14
-19 -17 6 -18 -11 -4 -38 11 -20 40 -27 40 -9 0 6 -6 10 -12 10 -10 0 -9 3 1
9 20 13 21 54 1 80 -14 20 -18 21 -23 7z"/>
<path d="M1548 1942 c-21 -4 -24 -42 -4 -42 8 0 18 9 21 21 8 24 6 27 -17 21z"/>
<path d="M2200 3850 c-12 -8 -11 -10 8 -10 12 0 22 5 22 10 0 13 -11 13 -30 0z"/>
<path d="M3000 3236 c0 -2 7 -7 16 -10 8 -3 12 -2 9 4 -6 10 -25 14 -25 6z"/>
<path d="M3055 3203 c11 -12 18 -14 26 -6 8 8 7 13 -2 18 -8 5 -10 4 -5 -3 9
-15 -6 -16 -22 -2 -7 5 -5 2 3 -7z"/>
<path d="M3207 3000 c3 -11 9 -17 14 -15 10 7 1 35 -11 35 -5 0 -6 -9 -3 -20z"/>
<path d="M3161 2973 c2 -6 30 -32 61 -57 55 -45 82 -59 59 -33 -6 8 -8 16 -5
20 3 3 -5 8 -18 12 -13 4 -41 21 -62 38 -21 17 -37 26 -35 20z"/>
<path d="M3244 2965 c8 -8 20 -15 27 -15 7 0 4 6 -7 15 -25 19 -40 19 -20 0z"/>
<path d="M3292 2790 c0 -14 2 -19 5 -12 2 6 2 18 0 25 -3 6 -5 1 -5 -13z"/>
<path d="M3281 2612 c-1 -7 4 -22 9 -33 15 -27 -5 -25 -24 3 l-16 22 0 -24 c0
-19 -3 -21 -12 -12 -17 17 -26 15 -30 -5 -3 -15 -4 -15 -20 1 -10 10 -18 13
-18 7 0 -14 33 -31 60 -31 13 0 19 -4 14 -12 -4 -7 -3 -8 4 -4 7 4 12 13 12
20 0 8 12 11 35 10 19 -2 37 1 40 6 3 6 0 7 -8 5 -8 -4 -19 7 -29 27 -9 18
-17 27 -17 20z"/>
<path d="M3406 2557 c3 -10 9 -15 12 -12 3 3 0 11 -7 18 -10 9 -11 8 -5 -6z"/>
<path d="M3347 2519 c7 -7 15 -10 18 -7 3 3 -2 9 -12 12 -14 6 -15 5 -6 -5z"/>
<path d="M3220 2500 c0 -5 5 -10 10 -10 6 0 10 5 10 10 0 6 -4 10 -10 10 -5 0
-10 -4 -10 -10z"/>
<path d="M940 2452 c0 -4 19 -20 42 -36 30 -21 54 -30 92 -32 l51 -3 -47 8
c-28 4 -66 20 -93 39 -25 17 -45 28 -45 24z"/>
<path d="M3247 2449 c7 -7 15 -10 18 -7 3 3 -2 9 -12 12 -14 6 -15 5 -6 -5z"/>
<path d="M1149 2139 c16 -6 28 -6 35 1 7 7 -1 10 -24 9 -33 0 -34 -1 -11 -10z"/>
<path d="M3289 1993 c-13 -16 -12 -17 4 -4 16 13 21 21 13 21 -2 0 -10 -8 -17
-17z"/>
<path d="M3200 1959 c0 -5 5 -7 10 -4 6 3 10 8 10 11 0 2 -4 4 -10 4 -5 0 -10
-5 -10 -11z"/>
<path d="M3150 1748 c26 -26 119 -40 179 -27 69 14 60 22 -10 9 -53 -10 -84
-5 -164 25 -18 7 -18 6 -5 -7z"/>
<path d="M2950 1560 c0 -6 7 -10 15 -10 8 0 15 2 15 4 0 2 -7 6 -15 10 -8 3
-15 1 -15 -4z"/>
<path d="M3468 1523 c7 -3 16 -2 19 1 4 3 -2 6 -13 5 -11 0 -14 -3 -6 -6z"/>
<path d="M3159 1497 c6 -6 11 -21 11 -33 0 -28 16 -40 24 -18 13 33 6 52 -20
57 -18 3 -22 1 -15 -6z"/>
<path d="M3308 1473 c6 -2 18 -2 25 0 6 3 1 5 -13 5 -14 0 -19 -2 -12 -5z"/>
<path d="M3490 1470 c0 -5 4 -10 9 -10 6 0 13 5 16 10 3 6 -1 10 -9 10 -9 0
-16 -4 -16 -10z"/>
<path d="M3353 1453 c0 -7 9 -13 19 -13 10 0 18 6 18 14 0 8 -8 14 -18 13 -10
0 -19 -7 -19 -14z"/>
<path d="M3827 1443 c-12 -12 -7 -32 6 -27 8 3 14 11 14 19 0 16 -9 19 -20 8z"/>
<path d="M3766 1345 c-21 -20 -26 -29 -16 -35 10 -6 10 -9 0 -15 -8 -5 -16 -1
-22 9 -11 20 -28 21 -28 2 0 -15 35 -27 56 -19 8 3 14 10 14 15 0 6 7 16 16
23 9 6 15 19 13 29 -4 16 -7 15 -33 -9z"/>
<path d="M1217 1294 c-8 -8 3 -34 14 -34 5 0 9 9 9 20 0 19 -11 26 -23 14z"/>
<path d="M4239 1273 c-11 -13 -11 -15 -1 -9 8 5 26 12 40 16 l27 8 -26 1 c-15
1 -33 -7 -40 -16z"/>
<path d="M3086 1264 c-8 -21 -8 -24 3 -24 5 0 11 9 14 20 6 24 -8 27 -17 4z"/>
<path d="M3685 1240 c-9 -16 -11 -30 -6 -30 5 0 14 14 20 30 5 17 8 30 6 30
-3 0 -11 -13 -20 -30z"/>
<path d="M4290 1263 c0 -4 5 -15 10 -23 8 -13 10 -13 10 2 0 9 -4 20 -10 23
-5 3 -10 3 -10 -2z"/>
<path d="M1600 1244 c0 -12 38 -50 44 -43 2 2 -7 15 -20 29 -13 13 -24 20 -24
14z"/>
<path d="M2595 1240 c-4 -6 -26 -20 -51 -31 -24 -12 -44 -28 -44 -36 0 -14
-23 -43 -34 -43 -3 0 -15 -8 -26 -17 -23 -20 -26 -43 -6 -43 7 0 16 -9 19 -21
5 -17 9 -19 26 -9 12 6 21 15 21 20 0 6 7 10 15 10 8 0 15 9 15 19 0 11 10 27
21 35 14 9 19 21 15 31 -3 9 -2 13 4 10 6 -3 10 1 10 10 0 9 5 13 10 10 6 -3
10 1 10 10 0 9 4 14 9 11 8 -6 21 15 21 35 0 12 -27 11 -35 -1z"/>
<path d="M4191 1240 c-15 -9 -7 -60 9 -60 5 0 7 -8 4 -17 -5 -15 -4 -15 6 1 9
13 9 20 2 25 -13 8 -3 26 18 33 12 4 11 7 -6 16 -11 6 -26 7 -33 2z"/>
<path d="M4129 1199 c-35 -17 -109 -93 -109 -111 0 -5 10 -8 23 -6 18 2 21 -1
19 -19 -4 -25 7 -30 26 -11 17 17 15 38 -4 38 -8 0 -12 5 -9 10 3 6 15 10 26
10 10 0 18 5 17 12 -5 22 29 20 35 -3 5 -18 10 -20 34 -14 37 9 41 15 20 26
-9 6 -17 19 -17 29 0 11 -6 20 -14 20 -9 0 -12 7 -9 20 3 11 4 20 2 19 -2 -1
-20 -9 -40 -20z"/>
<path d="M1430 1195 c0 -8 4 -15 10 -15 5 0 7 7 4 15 -4 8 -8 15 -10 15 -2 0
-4 -7 -4 -15z"/>
<path d="M4288 1203 c6 -2 18 -2 25 0 6 3 1 5 -13 5 -14 0 -19 -2 -12 -5z"/>
<path d="M3035 1150 c-3 -5 -1 -10 4 -10 6 0 11 5 11 10 0 6 -2 10 -4 10 -3 0
-8 -4 -11 -10z"/>
<path d="M983 1138 c-16 -22 -42 -99 -31 -91 8 4 9 0 4 -13 -5 -10 -11 -28
-14 -38 -5 -18 -3 -18 26 3 18 12 32 29 32 37 0 8 5 14 10 14 6 0 9 3 8 8 -1
4 3 17 10 29 10 19 9 26 -5 43 -20 23 -27 25 -40 8z"/>
<path d="M3010 1110 c-8 -10 -17 -17 -21 -14 -5 2 -13 -5 -20 -17 -7 -15 -13
-18 -18 -10 -5 7 -14 -4 -24 -29 -8 -22 -22 -40 -30 -40 -8 0 -17 -11 -21 -23
-3 -13 -16 -29 -28 -35 -13 -6 -17 -11 -9 -11 15 -1 101 83 101 99 0 6 10 8
26 4 20 -5 26 -2 31 15 3 11 9 21 14 21 17 0 9 -21 -16 -43 -87 -76 -102 -92
-98 -104 3 -8 30 12 70 52 55 55 64 69 59 90 -4 14 -2 25 4 25 12 0 14 27 2
34 -5 3 -14 -4 -22 -14z"/>
<path d="M3965 1060 c-3 -5 -1 -10 4 -10 6 0 11 5 11 10 0 6 -2 10 -4 10 -3 0
-8 -4 -11 -10z"/>
<path d="M2392 1026 c-11 -19 -9 -46 4 -46 12 0 44 37 44 50 0 10 -41 6 -48
-4z"/>
<path d="M3945 1020 c-3 -5 -1 -10 4 -10 6 0 11 5 11 10 0 6 -2 10 -4 10 -3 0
-8 -4 -11 -10z"/>
<path d="M2346 970 c-9 -17 -13 -30 -8 -30 10 0 37 48 31 55 -3 2 -13 -9 -23
-25z"/>
<path d="M2257 905 c-23 -32 -6 -32 30 0 25 22 26 24 8 24 -11 0 -28 -11 -38
-24z"/>
<path d="M459 915 c0 -5 0 -71 0 -145 1 -144 15 -240 35 -240 12 0 17 41 5 50
-9 7 13 110 24 110 4 0 5 4 2 10 -3 5 0 7 9 4 8 -3 24 0 37 6 28 16 7 31 -32
23 -33 -6 -44 9 -40 59 2 24 -2 38 -9 38 -7 0 -10 8 -7 20 3 11 1 23 -4 26 -5
3 -7 9 -5 13 3 4 1 13 -5 21 -5 8 -9 11 -10 5z m31 -145 c0 -5 -4 -10 -10 -10
-5 0 -10 5 -10 10 0 6 5 10 10 10 6 0 10 -4 10 -10z"/>
<path d="M2854 891 c-26 -27 -31 -28 -46 -14 -25 22 -36 9 -49 -56 -11 -58
-12 -59 -38 -51 -22 6 -30 4 -39 -11 -17 -27 -15 -50 3 -43 11 5 13 2 9 -10
-3 -9 -10 -16 -15 -16 -5 0 -9 -9 -9 -21 0 -35 -31 -89 -51 -89 -10 0 -16 -5
-14 -12 3 -7 -9 -29 -25 -48 -16 -19 -34 -40 -40 -47 -5 -7 -10 -21 -10 -33 0
-11 -4 -20 -10 -20 -5 0 -10 -9 -10 -21 0 -11 5 -17 10 -14 6 4 7 11 4 17 -4
7 -2 8 4 4 7 -4 16 3 23 18 6 13 20 27 30 29 26 7 24 -7 -3 -27 -22 -16 -22
-16 8 -2 35 17 72 55 42 43 -37 -14 -18 42 32 93 17 17 30 35 30 40 0 5 19 22
41 36 32 20 39 28 28 35 -10 6 -10 9 -1 9 6 0 12 6 12 14 0 8 14 24 31 36 18
14 28 28 25 37 -3 8 -2 12 3 9 14 -9 44 32 43 61 0 15 5 34 10 41 7 8 6 12 -3
12 -11 0 -11 2 1 10 8 5 12 11 9 14 -3 4 -19 -7 -35 -23z"/>
<path d="M831 787 c-11 -11 -15 -37 -5 -37 12 0 44 21 44 29 0 15 -27 20 -39
8z"/>
<path d="M890 736 c0 -19 5 -38 10 -41 6 -4 10 10 10 34 0 23 -4 41 -10 41 -5
0 -10 -15 -10 -34z"/>
<path d="M4360 716 c0 -8 -13 -17 -29 -21 -26 -6 -28 -8 -17 -31 6 -13 17 -22
24 -19 8 3 20 5 28 5 10 0 14 12 14 40 0 22 -4 40 -10 40 -5 0 -10 -6 -10 -14z"/>
<path d="M4110 649 c0 -5 5 -7 10 -4 6 3 10 8 10 11 0 2 -4 4 -10 4 -5 0 -10
-5 -10 -11z"/>
<path d="M3690 620 c-12 -17 -19 -34 -15 -38 4 -4 10 -1 12 6 3 6 9 12 14 12
6 0 7 -5 4 -10 -4 -6 -3 -10 2 -9 21 4 34 -2 27 -12 -4 -7 1 -10 11 -7 25 4
31 28 8 28 -29 1 -55 24 -41 38 6 6 9 14 6 17 -3 4 -16 -8 -28 -25z"/>
<path d="M4080 630 c0 -5 5 -10 10 -10 6 0 10 5 10 10 0 6 -4 10 -10 10 -5 0
-10 -4 -10 -10z"/>
<path d="M1371 621 c-9 -6 -15 -29 -15 -64 -1 -42 2 -53 11 -45 6 5 9 16 6 23
-3 8 2 22 11 30 22 22 21 46 -1 38 -16 -6 -16 -5 -4 10 15 19 13 21 -8 8z"/>
<path d="M2087 624 c-4 -4 -7 -14 -7 -23 0 -11 3 -12 11 -4 6 6 10 16 7 23 -2
6 -7 8 -11 4z"/>
<path d="M1820 581 c0 -22 -3 -48 -7 -58 -3 -10 -3 -15 0 -12 4 3 13 26 21 52
12 39 12 47 0 51 -10 4 -14 -5 -14 -33z"/>
<path d="M0 513 c0 -50 3 -99 6 -107 6 -15 8 -15 20 1 10 14 15 16 25 6 10
-10 10 -16 1 -25 -20 -20 -14 -40 11 -36 12 2 21 9 19 17 -2 8 2 17 8 21 12 7
-55 150 -70 150 -5 0 -7 6 -4 14 3 8 1 23 -5 33 -8 14 -10 -5 -11 -74z"/>
<path d="M3950 580 c0 -5 4 -10 9 -10 6 0 13 5 16 10 3 6 -1 10 -9 10 -9 0
-16 -4 -16 -10z"/>
<path d="M3637 573 c-14 -13 -6 -25 8 -13 13 11 14 10 10 -3 -8 -18 7 -29 29
-21 23 9 20 19 -9 32 -30 14 -30 14 -38 5z"/>
<path d="M871 526 c-1 -26 2 -37 9 -30 6 6 6 21 1 39 -9 30 -9 30 -10 -9z"/>
<path d="M3850 551 c0 -6 5 -13 10 -16 6 -3 10 1 10 9 0 9 -4 16 -10 16 -5 0
-10 -4 -10 -9z"/>
<path d="M3595 539 c-4 -6 -5 -12 -2 -15 2 -3 7 2 10 11 7 17 1 20 -8 4z"/>
<path d="M497 513 c-8 -7 1 -78 14 -114 5 -14 11 -47 13 -75 2 -27 4 -57 5
-66 0 -10 5 -18 9 -18 5 0 9 31 9 70 0 38 -4 67 -9 64 -4 -3 -3 7 2 22 8 20 7
32 -5 50 -8 13 -15 35 -15 49 0 24 -10 32 -23 18z"/>
<path d="M3665 510 c4 -6 11 -8 16 -5 14 9 11 15 -7 15 -8 0 -12 -5 -9 -10z"/>
<path d="M3828 495 c-26 -35 -22 -40 11 -13 15 13 26 26 24 31 -7 12 -17 7
-35 -18z"/>
<path d="M1790 479 c0 -11 5 -17 10 -14 6 3 10 13 10 21 0 8 -4 14 -10 14 -5
0 -10 -9 -10 -21z"/>
<path d="M3630 490 c0 -5 5 -10 10 -10 6 0 10 5 10 10 0 6 -4 10 -10 10 -5 0
-10 -4 -10 -10z"/>
<path d="M3450 450 c0 -5 5 -10 11 -10 5 0 7 5 4 10 -3 6 -8 10 -11 10 -2 0
-4 -4 -4 -10z"/>
<path d="M1363 444 c10 -17 -28 -47 -51 -40 -13 5 -22 1 -26 -10 -4 -12 -2
-15 9 -10 8 3 15 0 15 -6 0 -6 7 -5 18 3 15 13 16 12 3 -3 -10 -14 -11 -30 -4
-73 6 -33 6 -55 1 -55 -5 0 -6 -10 -2 -22 10 -31 11 -89 1 -110 -5 -13 -3 -18
8 -18 8 0 16 5 16 10 1 6 2 16 3 23 1 6 7 11 12 10 12 -2 12 20 0 55 -4 12
-11 20 -15 18 -4 -3 -8 1 -8 9 0 8 3 12 7 10 4 -3 10 18 13 46 4 28 11 57 18
65 7 9 8 24 3 41 -4 16 -8 33 -9 40 0 6 -4 15 -9 20 -5 4 -6 3 -3 -3z"/>
<path d="M4035 420 c-3 -5 -1 -10 4 -10 6 0 11 5 11 10 0 6 -2 10 -4 10 -3 0
-8 -4 -11 -10z"/>
<path d="M3412 404 c-12 -8 -27 -12 -33 -8 -8 5 -10 -1 -6 -18 6 -22 4 -25
-23 -23 -24 1 -30 -2 -30 -18 0 -21 -50 -72 -79 -82 -10 -3 -23 -16 -28 -28
-6 -13 -26 -28 -46 -34 -34 -10 -35 -10 -34 15 3 43 -27 38 -83 -14 -52 -48
-68 -94 -33 -94 13 0 14 -3 5 -12 -7 -7 -12 -21 -12 -33 0 -24 -18 -45 -37
-45 -10 0 -11 5 -3 19 15 30 12 33 -10 11 -35 -35 -26 -43 43 -35 34 4 70 7
80 7 10 0 21 6 24 14 3 8 11 14 19 14 8 0 13 3 13 8 -3 19 2 26 11 12 7 -12
13 -12 33 -1 13 7 30 12 38 11 28 -4 39 0 39 16 0 11 6 13 19 9 14 -4 25 3 41
25 12 16 19 33 17 38 -7 10 21 47 29 40 3 -4 1 -15 -5 -26 -13 -25 -14 -62 -2
-62 20 0 141 112 141 130 0 6 -6 13 -14 16 -22 9 -139 -26 -158 -47 -9 -11
-23 -16 -31 -13 -9 3 -22 -4 -31 -18 -14 -19 -18 -20 -26 -8 -11 17 21 38 108
70 89 32 77 54 -13 25 l-20 -7 20 13 c11 7 26 14 34 15 8 2 17 7 20 12 3 5 20
9 36 7 28 -1 44 9 45 28 0 11 -38 9 -45 -3 -11 -18 -22 -11 -22 15 0 13 3 22
7 20 15 -9 40 7 40 25 0 27 -13 31 -38 14z m-142 -159 c0 -2 -10 -9 -22 -15
-22 -11 -22 -10 -4 4 21 17 26 19 26 11z m150 -55 c-14 -10 -27 -17 -29 -15
-8 8 22 35 38 35 12 0 10 -5 -9 -20z m-330 -15 c-5 -14 -6 -25 -2 -25 16 -1
-25 -20 -42 -20 -17 0 -15 5 14 35 19 19 35 35 37 35 1 0 -2 -11 -7 -25z m124
-10 c-4 -8 -8 -15 -10 -15 -2 0 -4 7 -4 15 0 8 4 15 10 15 5 0 7 -7 4 -15z
m-54 -19 c0 -11 -19 -15 -25 -6 -3 5 1 10 9 10 9 0 16 -2 16 -4z m-55 -55 c-3
-6 -19 -17 -34 -25 -25 -14 -27 -13 -29 9 -1 20 4 24 31 27 38 4 41 3 32 -11z"/>
<path d="M3825 410 c3 -5 10 -10 16 -10 5 0 9 5 9 10 0 6 -7 10 -16 10 -8 0
-12 -4 -9 -10z"/>
<path d="M3580 400 c-13 -8 -12 -10 3 -10 9 0 17 5 17 10 0 12 -1 12 -20 0z"/>
<path d="M3930 380 c-8 -5 -10 -10 -5 -10 6 0 3 -5 -5 -10 -11 -7 -11 -10 -2
-10 22 0 53 20 47 31 -8 11 -16 11 -35 -1z"/>
<path d="M2485 370 c3 -5 -5 -22 -19 -37 -15 -15 -26 -31 -26 -35 0 -5 -6 -8
-13 -8 -14 0 -54 -60 -40 -60 4 0 0 -5 -10 -11 -9 -6 -15 -15 -11 -20 3 -6 -6
-28 -20 -49 -14 -22 -26 -46 -26 -53 0 -7 -13 -26 -30 -42 -47 -45 -40 -55 36
-55 58 0 65 2 62 18 -2 11 3 26 11 35 11 14 11 20 1 32 -10 12 -7 23 14 60 15
25 31 45 37 45 6 0 8 4 5 9 -3 5 1 22 9 37 8 16 15 36 15 45 0 9 9 28 21 43
11 14 16 26 10 26 -6 0 -11 7 -11 15 0 8 -5 15 -11 15 -5 0 -7 -4 -4 -10z
m-100 -309 c-3 -6 -11 -11 -17 -11 -6 0 -6 6 2 15 14 17 26 13 15 -4z"/>
<path d="M3285 340 c3 -5 8 -10 11 -10 2 0 4 5 4 10 0 6 -5 10 -11 10 -5 0 -7
-4 -4 -10z"/>
<path d="M3645 286 l-40 -21 39 -3 c21 -2 44 2 50 8 8 9 6 11 -11 5 -35 -10
-27 4 10 20 21 10 25 14 12 14 -11 -1 -38 -11 -60 -23z"/>
<path d="M140 276 c0 -8 -5 -16 -10 -18 -7 -2 0 -23 15 -51 28 -53 32 -71 13
-62 -7 4 -5 0 5 -8 9 -8 17 -20 17 -26 0 -7 8 -11 18 -9 12 2 17 -4 17 -22 0
-30 68 -82 73 -56 3 15 -20 50 -68 103 -11 13 -19 24 -18 25 1 2 -6 23 -17 48
-19 45 -22 53 -24 78 -1 17 -21 15 -21 -2z"/>
<path d="M4360 274 c0 -8 5 -12 10 -9 6 3 10 10 10 16 0 5 -4 9 -10 9 -5 0
-10 -7 -10 -16z"/>
<path d="M2495 270 c-3 -5 -1 -10 4 -10 6 0 11 5 11 10 0 6 -2 10 -4 10 -3 0
-8 -4 -11 -10z"/>
<path d="M535 178 c3 -24 7 -72 8 -108 l2 -65 37 -3 37 -3 -2 85 c-1 47 -3 86
-5 86 -1 0 -7 -11 -12 -24 -7 -18 -14 -23 -29 -19 -12 3 -21 10 -21 15 0 5 10
6 22 2 19 -6 21 -4 12 7 -6 8 -14 26 -18 42 -3 15 -13 27 -22 27 -12 0 -14 -8
-9 -42z"/>
<path d="M1876 181 c-9 -17 -27 -41 -40 -53 -26 -26 -40 -58 -26 -58 6 0 10 6
10 13 0 8 3 8 9 -2 10 -15 -6 -61 -21 -61 -4 0 -8 -4 -8 -10 0 -5 9 -10 19
-10 13 0 21 9 26 30 3 16 15 32 25 35 30 9 33 35 5 35 -14 0 -25 5 -25 10 0 6
5 10 10 10 6 0 10 6 10 13 0 6 7 25 15 41 9 16 13 31 11 33 -3 3 -12 -9 -20
-26z"/>
<path d="M3437 143 c-12 -11 -8 -23 8 -23 8 0 15 7 15 15 0 16 -12 20 -23 8z"/>
<path d="M1280 130 c0 -6 4 -9 9 -6 5 4 12 1 14 -4 3 -6 4 -5 3 2 -3 15 -26
23 -26 8z"/>
<path d="M1390 100 c0 -11 -4 -20 -10 -20 -5 0 -10 -7 -10 -15 0 -8 -5 -15
-11 -15 -5 0 -7 5 -3 11 4 7 1 10 -7 7 -8 -3 -16 -13 -18 -23 -2 -13 1 -16 12
-12 10 4 18 -1 22 -14 10 -30 27 -23 20 9 -4 20 -1 33 10 42 17 14 21 50 5 50
-5 0 -10 -9 -10 -20z"/>
<path d="M2218 3 c7 -3 16 -2 19 1 4 3 -2 6 -13 5 -11 0 -14 -3 -6 -6z"/>
</g>
</svg>
